<svg xmlns="http://www.w3.org/2000/svg" width="210mm" height="297mm" viewBox="0 0 210 297"><path d="M203.009 9.35c-4.75 7.778-23.23 64.824-36.57 112.76-2.602 9.39-2.017 9.04-17.829 10.092-12.884.84-44.182 4.905-61.36 7.989-7.158 1.261-8.525 1.331-9.24.49-.781-.84-.391-2.733 2.342-12.474 1.822-6.307 3.839-13.105 4.555-15.068.716-1.962 2.733-7.989 4.49-13.385 8.198-25.65 21.082-55.995 29.867-70.361 2.147-3.575 3.969-7.149 3.969-7.92 0-2.172-1.236-4.064-2.668-4.064-2.407 0-4.555 2.242-9.175 9.74-3.579 5.677-7.483 10.443-16.918 20.605C87.77 54.972 82.24 61.069 82.24 61.279c0 1.402 1.562 3.084 2.928 3.084 1.432 0 7.743-5.046 10.02-7.92 1.107-1.47 2.669-1.541 2.669-.21 0 .561-2.343 7.009-5.14 14.297-5.857 15.068-10.998 30.485-18.155 53.752-5.857 19.273-6.247 19.903-14.25 21.796-13.535 3.153-42.166 13.245-50.3 17.66-5.856 3.224-7.483 5.326-6.897 8.9.846 4.626 4.164 7.429 15.161 12.825 17.634 8.69 28.826 18.291 32.275 27.682 2.277 6.167 2.212 8.83-.586 26.35-2.668 16.68-3.058 24.109-1.431 26.842 2.733 4.415 6.051 2.873 8.133-3.714 2.864-8.83 3.644-15.488 3.774-31.817.13-15.278.13-15.558 3.189-32.238 1.692-9.25 4.164-21.935 5.596-28.172 4.555-20.604 4.36-20.394 23.23-23.758 17.569-3.153 30.388-4.905 48.022-6.587 15.746-1.542 20.236-1.682 20.757-.841.195.35-1.497 7.849-3.84 16.679-11.907 46.253-21.277 96.221-22.839 122.362-.39 7.078-.39 7.358 1.171 9.25 1.302 1.612 1.953 1.963 3.319 1.542 2.147-.56 3.253-2.803 4.945-10.022 1.757-7.288 1.757-9.74.065-10.722-1.822-1.051-1.691-5.046.326-18.01 4.62-29.014 8.459-47.516 17.048-82.206 6.117-24.949 6.507-26.21 8.264-27.962 1.562-1.612 1.952-1.612 10.606-1.332 8.004.28 9.305.49 11.778 1.962 1.497.911 2.733 1.893 2.733 2.173 0 .911 2.082 1.331 3.319.63 2.798-1.681.78-7.638-3.189-9.32-3.058-1.332-11.192-2.593-16.463-2.593-4.36 0-6.442-.841-6.442-2.593 0-3.574 15.487-56.415 24.076-82.205 6.312-18.992 11.062-34.62 11.062-36.513 0-1.682-.976-2.733-2.603-2.733-.26 0-.976.771-1.561 1.752zM64.93 153.996c.196.28-.325 3.714-1.236 7.498-1.627 7.5-6.832 35.461-6.832 37.284-.065.7-.39 2.102-.846 3.223l-.781 1.963-3.97-4.205c-8.589-9.11-16.787-14.577-34.552-22.917-2.212-1.051-4.554-2.523-5.14-3.224-1.041-1.19-1.041-1.471-.195-2.452 1.757-1.822 18.09-7.99 34.422-12.895 16.137-4.836 18.545-5.397 19.13-4.275z"/></svg>